<?xml version="1.0" encoding="UTF-8" standalone="no"?>
<svg
   id="visual"
   viewBox="0 0 960 162"
   width="960"
   height="162"
   version="1.1"
   sodipodi:docname="layered-waves-haikei.svg"
   inkscape:version="1.1.2 (0a00cf5339, 2022-02-04, custom)"
   xmlns:inkscape="http://www.inkscape.org/namespaces/inkscape"
   xmlns:sodipodi="http://sodipodi.sourceforge.net/DTD/sodipodi-0.dtd"
   xmlns="http://www.w3.org/2000/svg"
   xmlns:svg="http://www.w3.org/2000/svg">
  <defs
     id="defs15" />
  <sodipodi:namedview
     id="namedview13"
     pagecolor="#505050"
     bordercolor="#ffffff"
     borderopacity="1"
     inkscape:pageshadow="0"
     inkscape:pageopacity="0"
     inkscape:pagecheckerboard="1"
     showgrid="false"
     fit-margin-top="0"
     fit-margin-left="0"
     fit-margin-right="0"
     fit-margin-bottom="0"
     inkscape:zoom="1.1851852"
     inkscape:cx="764.85938"
     inkscape:cy="270"
     inkscape:window-width="1920"
     inkscape:window-height="1052"
     inkscape:window-x="0"
     inkscape:window-y="0"
     inkscape:window-maximized="1"
     inkscape:current-layer="visual" />
  <path
     d="m 0,129 40,1.2 c 40,1.1 120,3.5 200,7.8 80,4.3 160,10.7 240,11.8 80,1.2 160,-2.8 240,-1.6 80,1.1 160,7.5 200,10.6 l 40,3.2 V 0 H 920 C 880,0 800,0 720,0 640,0 560,0 480,0 400,0 320,0 240,0 160,0 80,0 40,0 H 0 Z"
     fill="#23d5ab"
     id="path2" />
  <path
     d="m 0,121 40,0.5 c 40,0.5 120,1.5 200,6 80,4.5 160,12.5 240,11.5 80,-1 160,-11 240,-10.3 80,0.6 160,12 200,17.6 l 40,5.7 V 0 H 920 C 880,0 800,0 720,0 640,0 560,0 480,0 400,0 320,0 240,0 160,0 80,0 40,0 H 0 Z"
     fill="#00cbc2"
     id="path4" />
  <path
     d="m 0,77 40,1 c 40,1 120,3 200,6.5 80,3.5 160,8.5 240,12.5 80,4 160,7 240,9.7 80,2.6 160,5 200,6.1 l 40,1.2 V 0 H 920 C 880,0 800,0 720,0 640,0 560,0 480,0 400,0 320,0 240,0 160,0 80,0 40,0 H 0 Z"
     fill="#00c0cf"
     id="path6" />
  <path
     d="m 0,46 40,6 c 40,6 120,18 200,23.3 80,5.4 160,4 240,-1 80,-5 160,-13.6 240,-18.8 80,-5.2 160,-6.8 200,-7.7 L 960,47 V 0 H 920 C 880,0 800,0 720,0 640,0 560,0 480,0 400,0 320,0 240,0 160,0 80,0 40,0 H 0 Z"
     fill="#00b4d4"
     id="path8" />
  <path
     d="m 0,37 40,0.8 c 40,0.9 120,2.5 200,4.5 80,2 160,4.4 240,4.5 80,0.2 160,-1.8 240,-2 80,-0.1 160,1.5 200,2.4 L 960,48 V 0 H 920 C 880,0 800,0 720,0 640,0 560,0 480,0 400,0 320,0 240,0 160,0 80,0 40,0 H 0 Z"
     fill="#23a6d5"
     id="path10" />
</svg>
