<?xml version="1.0" encoding="UTF-8" standalone="no"?>
<svg
   width="46"
   height="46"
   viewBox="0 0 46 46"
   version="1.1"
   id="svg16"
   sodipodi:docname="logo-plotly.svg"
   inkscape:version="1.1.2 (0a00cf5339, 2022-02-04)"
   inkscape:export-filename="/home/rishabh/Downloads/logo-plotly.png"
   inkscape:export-xdpi="96"
   inkscape:export-ydpi="96"
   xmlns:inkscape="http://www.inkscape.org/namespaces/inkscape"
   xmlns:sodipodi="http://sodipodi.sourceforge.net/DTD/sodipodi-0.dtd"
   xmlns="http://www.w3.org/2000/svg"
   xmlns:svg="http://www.w3.org/2000/svg">
  <defs
     id="defs20" />
  <sodipodi:namedview
     id="namedview18"
     pagecolor="#ffffff"
     bordercolor="#666666"
     borderopacity="1.0"
     inkscape:pageshadow="2"
     inkscape:pageopacity="0.0"
     inkscape:pagecheckerboard="0"
     showgrid="false"
     inkscape:zoom="8.3197279"
     inkscape:cx="35.517989"
     inkscape:cy="22.957482"
     inkscape:window-width="1920"
     inkscape:window-height="1052"
     inkscape:window-x="0"
     inkscape:window-y="0"
     inkscape:window-maximized="1"
     inkscape:current-layer="svg16"
     width="146px" />
  <path
     fill="#3f4f75"
     d="M 41.916277,46.080676 H 3.7435126 c -2.0159739,0 -3.65270516,-1.693 -3.65270516,-3.78 V 3.8606761 c 0,-2.088 1.63673126,-3.77999995 3.65370306,-3.77999995 H 41.917275 c 2.01797,0 3.653704,1.69199995 3.653704,3.77999995 V 42.300676 c 0,2.087 -1.636732,3.78 -3.653704,3.78"
     id="path2"
     style="fill-rule:evenodd;stroke-width:0.999" />
  <path
     fill="#80cfbe"
     d="m 11.383,17.956 a 1.263,1.263 0 0 1 0.153,0.26 1.148,1.148 0 0 0 -0.433,-0.243 C 11.07,17.901 11.008,17.84 10.934,17.826 l -0.022,-0.004 a 1.087,1.087 0 0 0 -0.065,-0.081 c 0.191,0.052 0.377,0.124 0.536,0.215 m -1.368,1.867 c 0.117,-0.007 0.233,-0.03 0.344,-0.071 0.021,0.025 0.044,0.051 0.068,0.075 a 1.051,1.051 0 0 1 -0.436,0.027 l 0.024,-0.03 m 0.448,-1.395 a 0.62,0.62 0 0 0 0.143,0.047 0.838,0.838 0 0 1 0.007,0.107 c -0.081,-0.107 -0.228,-0.114 -0.337,-0.052 l -0.02,-0.08 0.164,-0.05 c 0.013,0.01 0.027,0.02 0.043,0.028 m -0.717,0.143 a 1.102,1.102 0 0 0 0.063,0.247 C 9.759,18.764 9.736,18.682 9.746,18.572 m 1.412,0.65 a 35.186,35.186 0 0 0 -0.068,-0.133 0.803,0.803 0 0 0 0.055,-0.122 c 0.03,0.088 0.032,0.173 0.013,0.255 m 0.718,-1.553 a 3.586,3.586 0 0 0 -0.112,-0.074 2.06,2.06 0 0 0 -0.44,-0.431 c -0.718,-0.517 -1.816,-0.567 -2.338,0.252 -0.026,0.04 -0.05,0.082 -0.072,0.126 a 1.997,1.997 0 0 0 -0.652,1.15 0.251,0.251 0 0 0 -0.176,0.242 c -0.015,0.52 0.252,0.927 0.636,1.199 0.4,0.36 0.993,0.505 1.573,0.52 0.858,0.023 1.45,-0.447 1.716,-1.07 l 0.01,-0.013 c 0.457,-0.6 0.51,-1.433 -0.145,-1.901 m -0.493,-7.283 a 1.263,1.263 0 0 1 0.153,0.26 1.142,1.142 0 0 0 -0.433,-0.243 C 11.07,10.33 11.008,10.27 10.934,10.256 l -0.022,-0.005 a 1.08,1.08 0 0 0 -0.065,-0.08 c 0.191,0.051 0.377,0.123 0.536,0.215 m -1.368,1.867 c 0.117,-0.007 0.233,-0.03 0.344,-0.072 0.021,0.026 0.044,0.051 0.068,0.075 a 1.02,1.02 0 0 1 -0.436,0.028 l 0.024,-0.031 m 0.448,-1.394 a 0.643,0.643 0 0 0 0.143,0.046 0.833,0.833 0 0 1 0.007,0.108 c -0.081,-0.107 -0.228,-0.115 -0.337,-0.052 l -0.02,-0.08 0.164,-0.05 c 0.013,0.01 0.027,0.02 0.043,0.028 M 9.746,11 c 0.005,0.033 0.01,0.066 0.019,0.099 0.012,0.05 0.027,0.099 0.044,0.149 C 9.759,11.193 9.736,11.111 9.746,11 m 1.412,0.65 -0.068,-0.132 c 0.022,-0.04 0.04,-0.08 0.055,-0.122 0.03,0.088 0.032,0.173 0.013,0.254 m 0.718,-1.552 a 2.91,2.91 0 0 0 -0.112,-0.075 2.048,2.048 0 0 0 -0.44,-0.43 C 10.606,9.075 9.508,9.026 8.986,9.845 8.96,9.885 8.936,9.927 8.914,9.97 a 1.997,1.997 0 0 0 -0.652,1.15 0.251,0.251 0 0 0 -0.176,0.242 c -0.015,0.52 0.252,0.927 0.636,1.2 0.4,0.359 0.993,0.504 1.573,0.52 0.858,0.023 1.45,-0.447 1.716,-1.07 l 0.01,-0.013 c 0.457,-0.6 0.51,-1.433 -0.145,-1.901 m 16.144,7.858 a 1.263,1.263 0 0 1 0.153,0.26 1.148,1.148 0 0 0 -0.433,-0.243 C 27.707,17.901 27.645,17.84 27.571,17.826 l -0.022,-0.004 a 1.087,1.087 0 0 0 -0.065,-0.081 c 0.192,0.052 0.377,0.124 0.536,0.215 m -1.368,1.867 c 0.117,-0.007 0.233,-0.03 0.344,-0.071 0.022,0.025 0.044,0.051 0.068,0.075 a 1.051,1.051 0 0 1 -0.436,0.027 l 0.024,-0.03 M 27.1,18.429 a 0.62,0.62 0 0 0 0.144,0.047 0.838,0.838 0 0 1 0.006,0.107 c -0.08,-0.107 -0.228,-0.114 -0.337,-0.052 l -0.02,-0.08 0.164,-0.05 c 0.013,0.01 0.027,0.02 0.043,0.028 m -0.717,0.143 a 1.102,1.102 0 0 0 0.063,0.247 c -0.05,-0.055 -0.073,-0.137 -0.063,-0.247 m 1.412,0.65 a 35.186,35.186 0 0 0 -0.068,-0.133 0.803,0.803 0 0 0 0.056,-0.122 c 0.029,0.088 0.031,0.173 0.012,0.255 m 0.718,-1.553 a 3.586,3.586 0 0 0 -0.111,-0.074 2.06,2.06 0 0 0 -0.441,-0.431 c -0.717,-0.517 -1.816,-0.567 -2.338,0.252 -0.025,0.04 -0.05,0.082 -0.072,0.126 a 1.994,1.994 0 0 0 -0.652,1.15 0.251,0.251 0 0 0 -0.176,0.242 c -0.015,0.52 0.252,0.927 0.636,1.199 0.4,0.36 0.994,0.505 1.573,0.52 0.858,0.023 1.45,-0.447 1.716,-1.07 l 0.01,-0.013 c 0.457,-0.6 0.51,-1.433 -0.145,-1.901 M 28.02,10.386 a 1.263,1.263 0 0 1 0.153,0.26 1.142,1.142 0 0 0 -0.433,-0.243 C 27.707,10.33 27.645,10.27 27.571,10.256 l -0.022,-0.005 a 1.08,1.08 0 0 0 -0.065,-0.08 c 0.192,0.051 0.377,0.123 0.536,0.215 m -1.368,1.867 c 0.117,-0.007 0.233,-0.03 0.344,-0.072 0.022,0.026 0.044,0.051 0.068,0.075 a 1.02,1.02 0 0 1 -0.436,0.028 l 0.024,-0.031 M 27.1,10.859 a 0.643,0.643 0 0 0 0.144,0.046 0.833,0.833 0 0 1 0.006,0.108 c -0.08,-0.107 -0.228,-0.115 -0.337,-0.052 l -0.02,-0.08 0.164,-0.05 c 0.013,0.01 0.027,0.02 0.043,0.028 m -0.717,0.142 a 1.66,1.66 0 0 0 0.063,0.247 c -0.05,-0.054 -0.073,-0.136 -0.063,-0.247 m 1.412,0.65 -0.068,-0.132 c 0.022,-0.04 0.04,-0.08 0.056,-0.122 0.029,0.088 0.031,0.173 0.012,0.254 m 0.718,-1.552 a 2.91,2.91 0 0 0 -0.111,-0.075 2.048,2.048 0 0 0 -0.441,-0.43 c -0.717,-0.518 -1.816,-0.567 -2.338,0.252 -0.025,0.04 -0.05,0.082 -0.072,0.125 a 1.994,1.994 0 0 0 -0.652,1.15 0.251,0.251 0 0 0 -0.176,0.242 c -0.015,0.52 0.252,0.927 0.636,1.2 0.4,0.359 0.994,0.504 1.573,0.52 0.858,0.023 1.45,-0.447 1.716,-1.07 L 28.658,12 c 0.457,-0.6 0.51,-1.433 -0.145,-1.901"
     id="path4"
     style="fill-rule:evenodd" />
  <path
     fill="#ffffff"
     d="m 10.656,24.81 c -1.116,0 -2.02,0.92 -2.02,2.056 v 8.221 c 0,1.135 0.904,2.055 2.02,2.055 1.116,0 2.02,-0.92 2.02,-2.055 v -8.221 c 0,-1.135 -0.904,-2.055 -2.02,-2.055 M 26.818,24.81 c -1.116,0 -2.02,0.92 -2.02,2.056 v 8.221 c 0,1.135 0.904,2.055 2.02,2.055 1.115,0 2.02,-0.92 2.02,-2.055 v -8.221 c 0,-1.135 -0.905,-2.055 -2.02,-2.055 M 18.737,16.59 c -1.116,0 -2.02,0.92 -2.02,2.054 v 16.443 c 0,1.135 0.904,2.055 2.02,2.055 1.116,0 2.02,-0.92 2.02,-2.055 V 18.644 c 0,-1.135 -0.904,-2.055 -2.02,-2.055 m 16.162,0.001 c -1.116,0 -2.02,0.92 -2.02,2.054 v 16.443 c 0,1.135 0.904,2.055 2.02,2.055 1.115,0 2.02,-0.92 2.02,-2.055 V 18.644 c 0,-1.135 -0.905,-2.055 -2.02,-2.055"
     id="path6"
     style="fill-rule:evenodd" />
  <path
     fill="#80cfbe"
     d="m 36.174,12.043 c -0.12,0.187 -0.263,0.316 -0.416,0.394 0.1,-0.156 0.198,-0.342 0.283,-0.546 a 2.23,2.23 0 0 0 0.056,-0.126 c 0.064,-0.058 0.1,-0.144 0.075,-0.227 0.002,-0.003 0.002,-0.007 0.003,-0.01 0.126,-0.094 0.215,-0.268 0.248,-0.455 l 0.021,-0.033 c 0.01,0.351 -0.078,0.703 -0.27,1.003 M 33.518,11.37 a 2.518,2.518 0 0 1 -0.009,-0.257 c 0.079,0.295 0.198,0.584 0.32,0.837 0.07,0.188 0.16,0.386 0.274,0.53 a 1.13,1.13 0 0 1 -0.165,-0.127 c -0.269,-0.25 -0.386,-0.627 -0.42,-0.983 m 1.384,-0.405 a 3.724,3.724 0 0 1 0.01,-0.564 c 0.024,0.01 0.048,0.021 0.073,0.036 l 0.039,0.027 c 0.034,0.178 0.023,0.421 -0.122,0.5 m 1.823,-0.785 A 0.407,0.407 0 0 0 36.565,9.869 2.293,2.293 0 0 0 35.883,9.152 C 35.5,8.897 35.068,8.772 34.798,9.105 A 3.714,3.714 0 0 0 34.494,9.09 C 34.432,9.089 34.375,9.094 34.321,9.102 33.999,8.975 33.655,8.972 33.506,9.384 a 1.743,1.743 0 0 0 -0.093,0.507 0.704,0.704 0 0 0 -0.158,0.164 c -0.313,0.449 -0.268,1.24 -0.144,1.74 0.21,0.852 1.117,1.522 1.903,1.27 a 0.462,0.462 0 0 0 0.184,-0.074 c 0.42,0.079 0.878,-0.062 1.243,-0.507 0.545,-0.663 0.601,-1.56 0.284,-2.305 m -16.707,1.864 c -0.12,0.187 -0.264,0.316 -0.417,0.394 0.101,-0.156 0.198,-0.342 0.284,-0.546 0.02,-0.041 0.038,-0.083 0.055,-0.126 0.064,-0.058 0.1,-0.144 0.076,-0.227 a 0.35,0.35 0 0 1 0.003,-0.01 c 0.126,-0.094 0.214,-0.268 0.248,-0.455 l 0.02,-0.033 c 0.01,0.351 -0.077,0.703 -0.27,1.003 M 17.362,11.37 a 2.518,2.518 0 0 1 -0.01,-0.257 c 0.08,0.295 0.198,0.584 0.32,0.837 0.07,0.188 0.16,0.386 0.275,0.53 a 1.13,1.13 0 0 1 -0.165,-0.127 c -0.269,-0.25 -0.387,-0.627 -0.42,-0.983 m 1.384,-0.405 a 3.665,3.665 0 0 1 0.01,-0.564 c 0.023,0.01 0.047,0.021 0.072,0.036 0.014,0.008 0.026,0.017 0.04,0.027 0.033,0.178 0.022,0.421 -0.122,0.5 m 1.822,-0.785 A 0.407,0.407 0 0 0 20.409,9.869 2.293,2.293 0 0 0 19.726,9.152 C 19.344,8.897 18.911,8.772 18.642,9.105 A 3.714,3.714 0 0 0 18.338,9.09 C 18.276,9.089 18.218,9.094 18.165,9.102 17.842,8.975 17.498,8.972 17.349,9.384 a 1.758,1.758 0 0 0 -0.093,0.507 0.704,0.704 0 0 0 -0.158,0.164 c -0.312,0.449 -0.268,1.24 -0.144,1.74 0.21,0.852 1.118,1.522 1.904,1.27 a 0.462,0.462 0 0 0 0.184,-0.074 c 0.42,0.079 0.877,-0.062 1.243,-0.507 0.544,-0.663 0.6,-1.56 0.283,-2.305"
     id="path8"
     style="fill-rule:evenodd" />
  <g
     fill="#3f4f75"
     id="g12"
     style="fill-rule:evenodd" />
</svg>
