<?xml version="1.0" encoding="UTF-8" standalone="no"?>
<!-- Generator: Adobe Illustrator 14.0.0, SVG Export Plug-In . SVG Version: 6.00 Build 43363)  -->

<svg
   version="1.1"
   id="Layer_1"
   x="0px"
   y="0px"
   width="243"
   height="152"
   viewBox="0 0 243 152"
   enable-background="new 0 0 792 612"
   xml:space="preserve"
   inkscape:version="1.1.2 (0a00cf5339, 2022-02-04)"
   sodipodi:docname="scikit-learn-logo.svg"
   xmlns:inkscape="http://www.inkscape.org/namespaces/inkscape"
   xmlns:sodipodi="http://sodipodi.sourceforge.net/DTD/sodipodi-0.dtd"
   xmlns="http://www.w3.org/2000/svg"
   xmlns:svg="http://www.w3.org/2000/svg"
   xmlns:rdf="http://www.w3.org/1999/02/22-rdf-syntax-ns#"
   xmlns:cc="http://creativecommons.org/ns#"
   xmlns:dc="http://purl.org/dc/elements/1.1/"><metadata
   id="metadata35"><rdf:RDF><cc:Work
       rdf:about=""><dc:format>image/svg+xml</dc:format><dc:type
         rdf:resource="http://purl.org/dc/dcmitype/StillImage" /></cc:Work></rdf:RDF></metadata><defs
   id="defs33" /><sodipodi:namedview
   pagecolor="#ffffff"
   bordercolor="#666666"
   borderopacity="1"
   objecttolerance="10"
   gridtolerance="10"
   guidetolerance="10"
   inkscape:pageopacity="0"
   inkscape:pageshadow="2"
   inkscape:window-width="1920"
   inkscape:window-height="1052"
   id="namedview31"
   showgrid="false"
   inkscape:zoom="1.0907007"
   inkscape:cx="286.51308"
   inkscape:cy="278.71992"
   inkscape:window-x="0"
   inkscape:window-y="0"
   inkscape:window-maximized="1"
   inkscape:current-layer="Layer_1"
   inkscape:pagecheckerboard="0"
   inkscape:snap-global="false"
   width="200px" />
<g
   id="g3"
   transform="translate(-119.79394,-218.55427)">
	<path
   fill="#f89939"
   d="m 333.32,347.348 c 33.869,-33.867 39.498,-83.146 12.572,-110.07 -26.922,-26.921 -76.199,-21.293 -110.066,12.572 -33.867,33.866 -24.07,98.568 -12.57,110.07 9.293,9.293 76.199,21.293 110.064,-12.572 z"
   id="path5" />
	<path
   fill="#3499cd"
   d="m 194.35,298.411 c -19.648,-19.648 -48.242,-22.919 -63.867,-7.295 -15.621,15.622 -12.355,44.22 7.297,63.865 19.652,19.654 57.195,13.969 63.863,7.295 5.396,-5.387 12.361,-44.215 -7.293,-63.865 z"
   id="path7" />
</g>

<rect
   x="273.94299"
   y="285.61301"
   fill="none"
   width="225.242"
   height="83.947998"
   id="rect23" />


<rect
   x="345.56799"
   y="357.979"
   fill="none"
   width="327.43201"
   height="42.963001"
   id="rect27" />


</svg>
