<?xml version="1.0" encoding="UTF-8" standalone="no"?>
<svg
   height="144"
   width="144"
   version="1.1"
   id="svg2"
   sodipodi:docname="rust-logo.svg"
   inkscape:version="1.3.2 (091e20ef0f, 2023-11-25, custom)"
   xmlns:inkscape="http://www.inkscape.org/namespaces/inkscape"
   xmlns:sodipodi="http://sodipodi.sourceforge.net/DTD/sodipodi-0.dtd"
   xmlns="http://www.w3.org/2000/svg"
   xmlns:svg="http://www.w3.org/2000/svg">
  <defs
     id="defs2" />
  <sodipodi:namedview
     id="namedview2"
     pagecolor="#ffffff"
     bordercolor="#000000"
     borderopacity="0.25"
     inkscape:showpageshadow="2"
     inkscape:pageopacity="0.0"
     inkscape:pagecheckerboard="0"
     inkscape:deskcolor="#d1d1d1"
     inkscape:zoom="6.4375"
     inkscape:cx="71.92233"
     inkscape:cy="72"
     inkscape:window-width="1920"
     inkscape:window-height="1176"
     inkscape:window-x="0"
     inkscape:window-y="0"
     inkscape:window-maximized="1"
     inkscape:current-layer="svg2" />
  <path
     d="m 71.999994,7.6182451 c -35.493726,0 -64.3817516,28.9016449 -64.3817516,64.3817509 0,35.480104 28.9016456,64.381754 64.3817516,64.381754 35.480116,0 64.381766,-28.90165 64.381766,-64.381754 0,-35.480106 -28.90165,-64.381751 -64.381766,-64.3817509 z m -0.09534,5.7204009 a 4.2222007,4.2358208 0 0 1 4.113239,4.235821 4.235821,4.235821 0 0 1 -8.471641,0 4.2358208,4.2358208 0 0 1 4.358402,-4.235821 z m 9.69744,6.973441 A 52.123749,52.123749 0 0 1 117.2865,45.727011 l -4.99854,11.277362 c -0.85805,1.94766 0.0273,4.235821 1.96129,5.107502 l 9.61571,4.263059 a 52.123749,52.123749 0 0 1 0.10895,9.043683 h -5.35268 c -0.53116,0 -0.74908,0.354119 -0.74908,0.87168 v 2.4516 c 0,5.774882 -3.25518,7.041541 -6.11538,7.354801 -2.724,0.313261 -5.73402,-1.14408 -6.11538,-2.805721 -1.60716,-9.030061 -4.27669,-10.950481 -8.4989,-14.287381 5.24371,-3.323281 10.69171,-8.240102 10.69171,-14.804944 0,-7.09602 -4.86233,-11.563381 -8.172005,-13.756201 C 95.004159,37.37795 89.855793,36.765049 88.466553,36.765049 H 33.169367 A 52.123749,52.123749 0 0 1 62.329791,20.312087 l 6.523983,6.837242 c 1.47096,1.53906 3.90894,1.60716 5.448001,0.122579 z M 21.401685,51.665333 a 4.2358208,4.2358208 0 0 1 4.113241,4.23582 4.2358211,4.2358211 0 0 1 -8.471642,0 4.2358208,4.2358208 0 0 1 4.358401,-4.23582 z M 122.394,51.856014 a 4.2358208,4.2358208 0 0 1 4.11324,4.235819 4.235821,4.235821 0 0 1 -8.47163,0 4.2358208,4.2358208 0 0 1 4.35839,-4.235819 z m -93.010993,0.680998 h 7.38204 V 85.824299 H 21.864765 a 52.123749,52.123749 0 0 1 -1.68888,-19.898824 l 9.125402,-4.058761 c 1.94766,-0.87168 2.832961,-3.146221 1.961279,-5.093881 z m 30.808446,0.354121 h 17.583421 c 0.912541,0 6.415022,1.04874 6.415022,5.175601 0,3.41862 -4.2222,4.64442 -7.695301,4.64442 H 60.177831 Z m 0,23.916724 h 13.470182 c 1.2258,0 6.578461,0.35412 8.280961,7.191361 0.53118,2.09748 1.71612,8.934722 2.5197,11.127542 0.80358,2.4516 4.058761,7.35479 7.531861,7.35479 h 21.982693 a 52.123749,52.123749 0 0 1 -4.82148,5.5842 l -8.94835,-1.92041 c -2.083865,-0.44946 -4.140478,0.8853 -4.589947,2.96916 l -2.124719,9.91536 a 52.123749,52.123749 0 0 1 -43.461423,-0.20431 l -2.124721,-9.91536 c -0.44946,-2.08386 -2.492461,-3.41861 -4.576321,-2.96916 l -8.757661,1.87957 a 52.123749,52.123749 0 0 1 -4.521842,-5.33905 h 42.589748 c 0.4767,0 0.80358,-0.0818 0.80358,-0.53117 V 86.88666 c 0,-0.435841 -0.32688,-0.531181 -0.80358,-0.531181 H 60.177831 Z M 40.537789,111.30732 a 4.2358208,4.2358208 0 0 1 4.11324,4.23581 4.2358208,4.2358208 0 0 1 -8.47164,0 4.2358208,4.2358208 0 0 1 4.3584,-4.23581 z M 103.2579,111.498 a 4.2358208,4.2358208 0 0 1 4.11324,4.23581 4.2358208,4.2358208 0 0 1 -8.471635,0 4.2358208,4.2358208 0 0 1 4.358395,-4.23581 z"
     id="path1"
     style="stroke-width:1.36201" />
  <path
     d="m 132.78607,72.000006 a 60.786071,60.786071 0 0 1 -60.786066,60.786064 60.786071,60.786071 0 0 1 -60.78607,-60.786064 60.786071,60.786071 0 0 1 60.78607,-60.78607 60.786071,60.786071 0 0 1 60.786066,60.78607 z m -1.14407,-5.870222 9.47951,5.870222 -9.47951,5.870222 8.14476,7.61358 -10.43293,3.908941 6.51037,9.0573 -11.01858,1.797841 4.6308,10.16053 -11.15478,-0.39499 2.56056,10.86877 -10.86877,-2.56056 0.39499,11.15478 -10.16053,-4.6308 -1.797843,11.01858 -9.0573,-6.51037 -3.908941,10.43293 -7.61358,-8.14476 -5.870222,9.47951 -5.870222,-9.47951 -7.61358,8.14476 -3.908942,-10.43293 -9.057301,6.51037 -1.797839,-11.01858 -10.160522,4.6308 0.39498,-11.15478 -10.868762,2.56056 2.56056,-10.86877 -11.154782,0.39499 4.630801,-10.16053 L 8.1358131,98.450049 14.646174,89.392749 4.213253,85.483808 12.358014,77.870228 2.8784923,72.000006 12.358014,66.129784 4.213253,58.516204 14.646174,54.607262 8.1358131,45.549961 19.154395,43.752122 14.523594,33.5916 l 11.154782,0.39498 -2.56056,-10.868762 10.868762,2.56056 -0.39498,-11.154782 10.160522,4.630801 1.797839,-11.0185816 9.057301,6.5103606 3.908942,-10.4329207 7.61358,8.1447607 5.870222,-9.4795214 5.870222,9.4795214 7.61358,-8.1447607 3.908941,10.4329207 9.0573,-6.5103606 1.797843,11.0185816 10.16053,-4.630801 -0.39499,11.154782 10.86877,-2.56056 -2.56056,10.868762 11.15478,-0.39498 -4.6308,10.160522 11.01858,1.797839 -6.51037,9.057301 10.43293,3.908942 z"
     fill-rule="evenodd"
     stroke="#000000"
     stroke-linecap="round"
     stroke-linejoin="round"
     stroke-width="3.41152"
     id="path2" />
</svg>
